<svg width="212" height="109" version="1.1"
     xmlns="http://www.w3.org/2000/svg"
     desc="Created with imagetracer.js version 1.2.6" >
    <path fill="rgb(175,174,162)" stroke="rgb(175,174,162)" stroke-width="1" opacity="1" d="M 163.5 2 L 166 2.5 L 163.5 3 L 163.5 2 Z " /><path fill="rgb(175,174,162)" stroke="rgb(175,174,162)" stroke-width="1" opacity="1" d="M 153.5 7 L 151.5 10 L 153.5 7 Z " /><path fill="rgb(175,174,162)" stroke="rgb(175,174,162)" stroke-width="1" opacity="1" d="M 161.5 7 L 160.5 9 L 161.5 7 Z " /><path fill="rgb(175,174,162)" stroke="rgb(175,174,162)" stroke-width="1" opacity="1" d="M 50.5 9 L 0.5 60 L 50.5 9 Z " /><path fill="rgb(175,174,162)" stroke="rgb(175,174,162)" stroke-width="1" opacity="1" d="M 146.5 14 L 142.5 19 L 146.5 14 Z " /><path fill="rgb(175,174,162)" stroke="rgb(175,174,162)" stroke-width="1" opacity="1" d="M 151.5 17 L 148.5 21 L 151.5 17 Z " /><path fill="rgb(175,174,162)" stroke="rgb(175,174,162)" stroke-width="1" opacity="1" d="M 52.5 18 L 58.5 25 L 52.5 18 Z " />
    <path fill="rgb(175,174,162)" stroke="rgb(175,174,162)" stroke-width="1" opacity="1" d="M 139.5 22 L 136.5 26 L 139.5 22 Z " /><path fill="rgb(175,174,162)" stroke="rgb(175,174,162)" stroke-width="1" opacity="1" d="M 145.5 24 L 143.5 27 L 145.5 24 Z " /><path fill="rgb(175,174,162)" stroke="rgb(175,174,162)" stroke-width="1" opacity="1" d="M 134.5 28 L 132.5 31 L 134.5 28 Z " /><path fill="rgb(175,174,162)" stroke="rgb(175,174,162)" stroke-width="1" opacity="1" d="M 141.5 29 L 139.5 32 L 141.5 29 Z " /><path fill="rgb(175,174,162)" stroke="rgb(175,174,162)" stroke-width="1" opacity="1" d="M 64.5 30 L 74.5 41 L 64.5 30 Z " /><path fill="rgb(175,174,162)" stroke="rgb(175,174,162)" stroke-width="1" opacity="1" d="M 49.5 32 L 48.5 34 L 49.5 32 Z " /><path fill="rgb(175,174,162)" stroke="rgb(175,174,162)" stroke-width="1" opacity="1" d="M 131.5 32 L 129.5 35 L 131.5 32 Z " /><path fill="rgb(175,174,162)" stroke="rgb(175,174,162)" stroke-width="1" opacity="1" d="M 137.5 34 L 136.5 36 L 137.5 34 Z " /><path fill="rgb(175,174,162)" stroke="rgb(175,174,162)" stroke-width="1" opacity="1" d="M 47.5 35 L 48 38.5 L 47 38.5 L 47.5 35 Z " /><path fill="rgb(175,174,162)" stroke="rgb(175,174,162)" stroke-width="1" opacity="1" d="M 127.5 37 L 126.5 39 L 127.5 37 Z " /><path fill="rgb(175,174,162)" stroke="rgb(175,174,162)" stroke-width="1" opacity="1" d="M 134.5 38 L 133.5 40 L 134.5 38 Z " /><path fill="rgb(175,174,162)" stroke="rgb(175,174,162)" stroke-width="1" opacity="1" d="M 124.5 41 L 123.5 43 L 124.5 41 Z " /><path fill="rgb(175,174,162)" stroke="rgb(175,174,162)" stroke-width="1" opacity="1" d="M 131.5 42 L 130.5 44 L 131.5 42 Z " /><path fill="rgb(175,174,162)" stroke="rgb(175,174,162)" stroke-width="1" opacity="1" d="M 31.5 44 L 30.5 46 L 31.5 44 Z " /><path fill="rgb(175,174,162)" stroke="rgb(175,174,162)" stroke-width="1" opacity="1" d="M 38.5 44 L 39.5 46 L 38.5 44 Z " /><path fill="rgb(175,174,162)" stroke="rgb(175,174,162)" stroke-width="1" opacity="1" d="M 121.5 45 L 120.5 47 L 121.5 45 Z " /><path fill="rgb(175,174,162)" stroke="rgb(175,174,162)" stroke-width="1" opacity="1" d="M 79.5 46 L 94 58.5 L 92.5 58 L 79.5 47 L 58 67.5 L 79.5 46 Z " /><path fill="rgb(175,174,162)" stroke="rgb(175,174,162)" stroke-width="1" opacity="1" d="M 128.5 46 L 127.5 48 L 128.5 46 Z " /><path fill="rgb(175,174,162)" stroke="rgb(175,174,162)" stroke-width="1" opacity="1" d="M 119.5 48 L 118.5 50 L 119.5 48 Z " /><path fill="rgb(175,174,162)" stroke="rgb(175,174,162)" stroke-width="1" opacity="1" d="M 149.5 48 L 153 49.5 L 151 50.5 L 151.5 49 Q 148.5 49.5 149.5 48 Z " /><path fill="rgb(175,174,162)" stroke="rgb(175,174,162)" stroke-width="1" opacity="1" d="M 179.5 48 Q 181.8 47.3 181 49.5 L 179.5 48 Z " /><path fill="rgb(175,174,162)" stroke="rgb(175,174,162)" stroke-width="1" opacity="1" d="M 29.5 49 L 25.5 54 L 29.5 49 Z " /><path fill="rgb(175,174,162)" stroke="rgb(175,174,162)" stroke-width="1" opacity="1" d="M 165.5 49 L 166.5 51 L 165.5 49 Z " /><path fill="rgb(175,174,162)" stroke="rgb(175,174,162)" stroke-width="1" opacity="1" d="M 172.5 49 Q 174.3 52.1 176 50.5 L 176.5 52 Q 177.8 49.8 179 52.5 L 176 54.5 Q 178.3 53.2 175.5 52 L 174.5 55 L 172.5 49 Z " /><path fill="rgb(175,174,162)" stroke="rgb(175,174,162)" stroke-width="1" opacity="1" d="M 125.5 50 L 124.5 52 L 125.5 50 Z " /><path fill="rgb(175,174,162)" stroke="rgb(175,174,162)" stroke-width="1" opacity="1" d="M 133.5 50 L 134.5 52 L 133.5 50 Z " /><path fill="rgb(175,174,162)" stroke="rgb(175,174,162)" stroke-width="1" opacity="1" d="M 139.5 50 L 140.5 52 L 139.5 50 Z " /><path fill="rgb(175,174,162)" stroke="rgb(175,174,162)" stroke-width="1" opacity="1" d="M 159.5 50 L 160.5 52 L 158 51.5 L 159.5 50 Z " /><path fill="rgb(175,174,162)" stroke="rgb(175,174,162)" stroke-width="1" opacity="1" d="M 164.5 51 L 165.5 53 L 164.5 51 Z " /><path fill="rgb(175,174,162)" stroke="rgb(175,174,162)" stroke-width="1" opacity="1" d="M 171.5 51 Q 174.5 52.5 171.5 54 Q 168.5 52.5 171.5 51 Z " /><path fill="rgb(175,174,162)" stroke="rgb(175,174,162)" stroke-width="1" opacity="1" d="M 100.5 52 L 98.5 55 L 100.5 52 Z " /><path fill="rgb(175,174,162)" stroke="rgb(175,174,162)" stroke-width="1" opacity="1" d="M 103.5 52 L 108.5 58 L 103.5 52 Z " /><path fill="rgb(175,174,162)" stroke="rgb(175,174,162)" stroke-width="1" opacity="1" d="M 116.5 52 L 115.5 54 L 116.5 52 Z " /><path fill="rgb(175,174,162)" stroke="rgb(175,174,162)" stroke-width="1" opacity="1" d="M 132.5 52 L 133.5 54 L 132.5 52 Z " /><path fill="rgb(175,174,162)" stroke="rgb(175,174,162)" stroke-width="1" opacity="1" d="M 192.5 52 L 185.5 60 Q 181 61 180 58.5 L 181.5 59 L 185.5 59 L 192.5 52 Z " /><path fill="rgb(175,174,162)" stroke="rgb(175,174,162)" stroke-width="1" opacity="1" d="M 123.5 53 L 122.5 55 L 123.5 53 Z " /><path fill="rgb(175,174,162)" stroke="rgb(175,174,162)" stroke-width="1" opacity="1" d="M 137.5 53 L 140 53.5 Q 137.9 56.8 137.5 53 Z " /><path fill="rgb(175,174,162)" stroke="rgb(175,174,162)" stroke-width="1" opacity="1" d="M 143.5 53 L 146 53.5 Q 143.9 56.8 143.5 53 Z " /><path fill="rgb(175,174,162)" stroke="rgb(175,174,162)" stroke-width="1" opacity="1" d="M 151.5 53 L 153 55.5 L 152 55.5 L 151.5 53 Z " /><path fill="rgb(175,174,162)" stroke="rgb(175,174,162)" stroke-width="1" opacity="1" d="M 157.5 53 L 160 53.5 Q 157.9 56.8 157.5 53 Z " /><path fill="rgb(175,174,162)" stroke="rgb(175,174,162)" stroke-width="1" opacity="1" d="M 163.5 53 L 164.5 55 L 163.5 53 Z " /><path fill="rgb(175,174,162)" stroke="rgb(175,174,162)" stroke-width="1" opacity="1" d="M 131.5 54 L 132.5 56 L 131.5 54 Z " /><path fill="rgb(175,174,162)" stroke="rgb(175,174,162)" stroke-width="1" opacity="1" d="M 169.5 54 Q 172.5 55.5 169.5 57 Q 166.5 55.5 169.5 54 Z " /><path fill="rgb(175,174,162)" stroke="rgb(175,174,162)" stroke-width="1" opacity="1" d="M 136.5 55 L 137.5 57 L 136.5 55 Z " /><path fill="rgb(175,174,162)" stroke="rgb(175,174,162)" stroke-width="1" opacity="1" d="M 142.5 55 L 143.5 57 L 142.5 55 Z " /><path fill="rgb(175,174,162)" stroke="rgb(175,174,162)" stroke-width="1" opacity="1" d="M 156.5 55 L 157.5 57 L 156.5 55 Z " /><path fill="rgb(175,174,162)" stroke="rgb(175,174,162)" stroke-width="1" opacity="1" d="M 162.5 55 L 163.5 57 L 162.5 55 Z " /><path fill="rgb(175,174,162)" stroke="rgb(175,174,162)" stroke-width="1" opacity="1" d="M 130.5 56 L 131.5 58 L 130.5 56 Z " /><path fill="rgb(175,174,162)" stroke="rgb(175,174,162)" stroke-width="1" opacity="1" d="M 135.5 57 L 134.5 59 L 135.5 57 Z " /><path fill="rgb(175,174,162)" stroke="rgb(175,174,162)" stroke-width="1" opacity="1" d="M 149.5 57 L 150 58.5 L 148.5 60 L 142 60 L 142.5 58 L 149 59 L 149.5 57 Z " /><path fill="rgb(175,174,162)" stroke="rgb(175,174,162)" stroke-width="1" opacity="1" d="M 172.5 57 L 175 57.5 L 174.5 60 L 171.5 59 L 167.5 60 L 168.5 58 L 170.5 59 L 172.5 57 Z " /><path fill="rgb(175,174,162)" stroke="rgb(175,174,162)" stroke-width="1" opacity="1" d="M 176.5 57 L 177 59 L 179 59.5 L 177.5 60 L 176.5 57 Z " /><path fill="rgb(175,174,162)" stroke="rgb(175,174,162)" stroke-width="1" opacity="1" d="M 30.5 58 L 34.5 63 L 30.5 58 Z " /><path fill="rgb(175,174,162)" stroke="rgb(175,174,162)" stroke-width="1" opacity="1" d="M 49.5 58 L 35.5 73 L 49.5 58 Z " /><path fill="rgb(175,174,162)" stroke="rgb(175,174,162)" stroke-width="1" opacity="1" d="M 124.5 58 L 127 58.5 L 124.5 59 L 124.5 58 Z " /><path fill="rgb(175,174,162)" stroke="rgb(175,174,162)" stroke-width="1" opacity="1" d="M 162.5 58 L 165 59.5 L 162 60 L 162.5 58 Z " /><path fill="rgb(175,174,162)" stroke="rgb(175,174,162)" stroke-width="1" opacity="1" d="M 136.5 59 L 139 59.5 L 136.5 60 L 136.5 59 Z " /><path fill="rgb(175,174,162)" stroke="rgb(175,174,162)" stroke-width="1" opacity="1" d="M 156.5 59 L 159 59.5 L 156.5 60 L 156.5 59 Z " /><path fill="rgb(175,174,162)" stroke="rgb(175,174,162)" stroke-width="1" opacity="1" d="M 82.5 61 L 83 63.5 L 82 63.5 L 82.5 61 Z " /><path fill="rgb(175,174,162)" stroke="rgb(175,174,162)" stroke-width="1" opacity="1" d="M 92.5 61 L 92 62.5 L 80.5 75 L 91 63.5 L 92.5 61 Z " /><path fill="rgb(175,174,162)" stroke="rgb(175,174,162)" stroke-width="1" opacity="1" d="M 71.5 63 L 48.5 87 L 71.5 63 Z " /><path fill="rgb(175,174,162)" stroke="rgb(175,174,162)" stroke-width="1" opacity="1" d="M 49.5 64 L 48.5 66 L 49.5 64 Z " /><path fill="rgb(175,174,162)" stroke="rgb(175,174,162)" stroke-width="1" opacity="1" d="M 81.5 65 L 80.5 67 L 81.5 65 Z " /><path fill="rgb(175,174,162)" stroke="rgb(175,174,162)" stroke-width="1" opacity="1" d="M 114.5 65 L 112.5 68 L 114.5 65 Z " /><path fill="rgb(175,174,162)" stroke="rgb(175,174,162)" stroke-width="1" opacity="1" d="M 186.5 65 L 192.5 72 L 186.5 65 Z " /><path fill="rgb(175,174,162)" stroke="rgb(175,174,162)" stroke-width="1" opacity="1" d="M 47.5 67 L 48 70.5 L 47 70.5 L 47.5 67 Z " /><path fill="rgb(175,174,162)" stroke="rgb(175,174,162)" stroke-width="1" opacity="1" d="M 76.5 67 L 79 67.5 L 76.5 68 L 76.5 67 Z " /><path fill="rgb(175,174,162)" stroke="rgb(175,174,162)" stroke-width="1" opacity="1" d="M 97.5 68 L 100.5 72 L 97.5 68 Z " /><path fill="rgb(175,174,162)" stroke="rgb(175,174,162)" stroke-width="1" opacity="1" d="M 163.5 69 L 166 70.5 L 164.5 70 L 163.5 69 Z " /><path fill="rgb(175,174,162)" stroke="rgb(175,174,162)" stroke-width="1" opacity="1" d="M 198.5 69 L 196.5 72 L 198.5 69 Z " /><path fill="rgb(175,174,162)" stroke="rgb(175,174,162)" stroke-width="1" opacity="1" d="M 110.5 70 L 109.5 72 L 110.5 70 Z " /><path fill="rgb(175,174,162)" stroke="rgb(175,174,162)" stroke-width="1" opacity="1" d="M 127.5 70 L 138 70.5 L 127.5 71 L 127.5 70 Z " /><path fill="rgb(175,174,162)" stroke="rgb(175,174,162)" stroke-width="1" opacity="1" d="M 10.5 71 L 22.5 84 L 10.5 71 Z " /><path fill="rgb(175,174,162)" stroke="rgb(175,174,162)" stroke-width="1" opacity="1" d="M 137.5 72 L 138 74 L 134 74 L 134 75.5 L 133 75.5 L 134.5 73 L 137.5 72 Z " /><path fill="rgb(175,174,162)" stroke="rgb(175,174,162)" stroke-width="1" opacity="1" d="M 100.5 73 L 99.5 75 L 100.5 73 Z " /><path fill="rgb(175,174,162)" stroke="rgb(175,174,162)" stroke-width="1" opacity="1" d="M 127.5 73 L 130 73.5 L 127.5 74 L 127.5 73 Z " /><path fill="rgb(175,174,162)" stroke="rgb(175,174,162)" stroke-width="1" opacity="1" d="M 164.5 73 L 165.5 75 Q 162.7 75.7 164.5 73 Z " /><path fill="rgb(175,174,162)" stroke="rgb(175,174,162)" stroke-width="1" opacity="1" d="M 107.5 74 L 106.5 76 L 107.5 74 Z " /><path fill="rgb(175,174,162)" stroke="rgb(175,174,162)" stroke-width="1" opacity="1" d="M 157.5 74 Q 159.8 73.3 159 75.5 L 157.5 74 Z " /><path fill="rgb(175,174,162)" stroke="rgb(175,174,162)" stroke-width="1" opacity="1" d="M 139.5 75 L 138.5 77 L 139.5 75 Z " /><path fill="rgb(175,174,162)" stroke="rgb(175,174,162)" stroke-width="1" opacity="1" d="M 151.5 75 L 150.5 77 L 151.5 75 Z " /><path fill="rgb(175,174,162)" stroke="rgb(175,174,162)" stroke-width="1" opacity="1" d="M 143.5 76 Q 146.5 77.5 143.5 79 L 143.5 76 Z " /><path fill="rgb(175,174,162)" stroke="rgb(175,174,162)" stroke-width="1" opacity="1" d="M 147.5 76 L 148 78.5 L 147 78.5 L 147.5 76 Z " /><path fill="rgb(175,174,162)" stroke="rgb(175,174,162)" stroke-width="1" opacity="1" d="M 170.5 76 L 171 78.5 L 170 78.5 L 170.5 76 Z " /><path fill="rgb(175,174,162)" stroke="rgb(175,174,162)" stroke-width="1" opacity="1" d="M 29.5 78 L 45 92.5 L 30.5 79 L 24.5 84 L 29.5 78 Z " /><path fill="rgb(175,174,162)" stroke="rgb(175,174,162)" stroke-width="1" opacity="1" d="M 96.5 78 L 94.5 81 L 96.5 78 Z " /><path fill="rgb(175,174,162)" stroke="rgb(175,174,162)" stroke-width="1" opacity="1" d="M 103.5 79 L 101.5 82 L 103.5 79 Z " /><path fill="rgb(175,174,162)" stroke="rgb(175,174,162)" stroke-width="1" opacity="1" d="M 152.5 80 L 153 83 L 156 83.5 L 153.5 84 Q 151 83 152.5 80 Z " /><path fill="rgb(175,174,162)" stroke="rgb(175,174,162)" stroke-width="1" opacity="1" d="M 140 81 L 144 81.5 L 141 82.5 L 145 83.5 L 141.5 84 L 140 81 Z " /><path fill="rgb(175,174,162)" stroke="rgb(175,174,162)" stroke-width="1" opacity="1" d="M 159.5 81 L 160 83.5 L 159 83.5 L 159.5 81 Z " /><path fill="rgb(175,174,162)" stroke="rgb(175,174,162)" stroke-width="1" opacity="1" d="M 83.5 83 L 82.5 85 L 83.5 83 Z " /><path fill="rgb(175,174,162)" stroke="rgb(175,174,162)" stroke-width="1" opacity="1" d="M 149.5 83 L 151 85.5 L 149 84.5 L 149.5 83 Z " /><path fill="rgb(175,174,162)" stroke="rgb(175,174,162)" stroke-width="1" opacity="1" d="M 162.5 83 L 163 85.5 L 162 85.5 L 162.5 83 Z " /><path fill="rgb(175,174,162)" stroke="rgb(175,174,162)" stroke-width="1" opacity="1" d="M 91.5 84 L 78.5 98 L 91.5 84 Z " /><path fill="rgb(175,174,162)" stroke="rgb(175,174,162)" stroke-width="1" opacity="1" d="M 78.5 85 L 81 85.5 L 78.5 86 L 78.5 85 Z " /><path fill="rgb(175,174,162)" stroke="rgb(175,174,162)" stroke-width="1" opacity="1" d="M 98.5 85 L 93.5 91 L 98.5 85 Z " /><path fill="rgb(175,174,162)" stroke="rgb(175,174,162)" stroke-width="1" opacity="1" d="M 59.5 98 L 59 99.5 L 58.5 101 L 58 99.5 L 59.5 98 Z " /><path fill="rgb(175,174,162)" stroke="rgb(175,174,162)" stroke-width="1" opacity="1" d="M 85.5 98 L 84.5 100 L 85.5 98 Z " /><path fill="rgb(175,174,162)" stroke="rgb(175,174,162)" stroke-width="1" opacity="1" d="M 66.5 100 L 72 100.5 L 66.5 101 L 66.5 100 Z " /><path fill="rgb(175,174,162)" stroke="rgb(175,174,162)" stroke-width="1" opacity="1" d="M 82.5 100 L 81.5 102 L 82.5 100 Z " /><path fill="rgb(175,174,162)" stroke="rgb(175,174,162)" stroke-width="1" opacity="1" d="M 71.5 104 L 74 104.5 L 71.5 105 L 71.5 104 Z " /><path fill="rgb(16,20,17)" stroke="rgb(16,20,17)" stroke-width="1" opacity="1" d="M 161.5 3 Q 167.6 1.8 167 4.5 L 156 11 L 124 51.5 L 121 58 L 128.5 59 L 134.5 49 L 135 50.5 L 131 60 L 136 57.5 L 140.5 49 L 141 50.5 L 136 59.5 L 138.5 60 Q 144.1 55.9 146 49 Q 151.4 47.5 153 50.5 L 151 60 L 155 59 L 160.5 49 L 161 50.5 L 156 59.5 L 158.5 60 Q 163.9 55.9 166.5 49 L 166 50.5 L 162 60 L 164.5 60 L 170 54.5 L 173.5 49 Q 175.8 48.3 175 50.5 L 173 50.5 L 167 59.5 L 170.5 60 L 175.5 52 Q 176.8 54.3 178 51.5 L 179.5 49 L 180 50.5 Q 175 51.5 176 58.5 L 178.5 60 L 181 59 L 181.5 57 L 182 58.5 L 181.5 60 L 185.5 60 L 194.5 52 L 204 60.5 L 204 63.5 L 195.5 72 L 193.5 72 L 186.5 65 L 114.5 65 Q 102 83 86.5 98 L 75.5 104 L 64.5 105 L 59 101.5 L 60.5 98 L 66.5 101 L 71.5 101 L 78.5 98 L 92 84.5 L 101 73.5 L 101 71.5 L 97 67.5 L 102 62.5 L 103 59.5 L 99 54.5 L 102.5 52 L 108.5 58 L 111.5 58 L 150.5 10 L 161.5 3 Z M 149 50 L 142 59 Q 141 61 149 60 L 152 54 Q 154 48 149 50 Z M 175 57 L 172 60 L 175 60 L 175 57 Z " /><path fill="rgb(16,20,17)" stroke="rgb(16,20,17)" stroke-width="1" opacity="1" d="M 162 70 Q 166.1 68.3 165 72.5 L 164 75 L 167.5 74 L 170 75 L 169 86 Q 164.5 87.8 166 82.5 L 167 77 Q 163.3 75.5 164 78.5 L 162 86 Q 158.3 87.5 159 84.5 L 162 70 Z " /><path fill="rgb(16,20,17)" stroke="rgb(16,20,17)" stroke-width="1" opacity="1" d="M 127 71 L 138 71.5 L 133 74.5 L 131 86 Q 126.9 87.7 128 83.5 L 130 73 Q 125.9 74.3 127 71 Z " /><path fill="rgb(16,20,17)" stroke="rgb(16,20,17)" stroke-width="1" opacity="1" d="M 142.5 74 L 147 75 L 147 80 L 145.5 80 L 140 81 L 141.5 84 L 145.5 83 L 146 84.5 Q 144.8 87.3 139.5 86 L 137 80.5 L 140.5 75 L 142.5 74 Z M 144 76 L 141 77 Q 140 80 144 79 Q 147 78 144 76 Z " /><path fill="rgb(16,20,17)" stroke="rgb(16,20,17)" stroke-width="1" opacity="1" d="M 154.5 74 L 158 75.5 Q 158.9 78.5 154.5 77 L 152 82.5 L 155.5 84 L 157 83.5 L 155.5 86 Q 151 87 150 84.5 L 149 80.5 L 152.5 75 L 154.5 74 Z " /><path fill="rgb(192,197,193)" stroke="rgb(192,197,193)" stroke-width="1" opacity="1" d="M 166.5 2 L 168 4.5 L 167 4.5 L 166.5 2 Z " /><path fill="rgb(192,197,193)" stroke="rgb(192,197,193)" stroke-width="1" opacity="1" d="M 51.5 8 L 98 53.5 L 52.5 9 L 51.5 8 Z " /><path fill="rgb(192,197,193)" stroke="rgb(192,197,193)" stroke-width="1" opacity="1" d="M 159.5 9 L 158.5 11 L 159.5 9 Z " /><path fill="rgb(192,197,193)" stroke="rgb(192,197,193)" stroke-width="1" opacity="1" d="M 149.5 10 L 147.5 13 L 149.5 10 Z " /><path fill="rgb(192,197,193)" stroke="rgb(192,197,193)" stroke-width="1" opacity="1" d="M 155.5 13 L 152.5 17 L 155.5 13 Z " /><path fill="rgb(192,197,193)" stroke="rgb(192,197,193)" stroke-width="1" opacity="1" d="M 51.5 18 L 10 60.5 L 22.5 74 L 9 60.5 L 51.5 18 Z " /><path fill="rgb(192,197,193)" stroke="rgb(192,197,193)" stroke-width="1" opacity="1" d="M 141.5 19 L 140.5 21 L 141.5 19 Z " /><path fill="rgb(192,197,193)" stroke="rgb(192,197,193)" stroke-width="1" opacity="1" d="M 147.5 22 L 146.5 24 L 147.5 22 Z " /><path fill="rgb(192,197,193)" stroke="rgb(192,197,193)" stroke-width="1" opacity="1" d="M 48.5 40 L 49.5 42 L 48.5 40 Z " /><path fill="rgb(192,197,193)" stroke="rgb(192,197,193)" stroke-width="1" opacity="1" d="M 56.5 40 L 55.5 42 L 56.5 40 Z " /><path fill="rgb(192,197,193)" stroke="rgb(192,197,193)" stroke-width="1" opacity="1" d="M 74.5 41 L 56.5 60 L 74.5 41 Z " /><path fill="rgb(192,197,193)" stroke="rgb(192,197,193)" stroke-width="1" opacity="1" d="M 142.5 45 L 143.5 47 L 142.5 45 Z " /><path fill="rgb(192,197,193)" stroke="rgb(192,197,193)" stroke-width="1" opacity="1" d="M 161.5 45 L 164 46.5 L 162.5 46 L 161.5 45 Z " /><path fill="rgb(192,197,193)" stroke="rgb(192,197,193)" stroke-width="1" opacity="1" d="M 178.5 49 L 177.5 51 L 178.5 49 Z " /><path fill="rgb(192,197,193)" stroke="rgb(192,197,193)" stroke-width="1" opacity="1" d="M 180.5 50 L 179.5 52 L 180.5 50 Z " /><path fill="rgb(192,197,193)" stroke="rgb(192,197,193)" stroke-width="1" opacity="1" d="M 39.5 51 L 38.5 53 L 39.5 51 Z " /><path fill="rgb(192,197,193)" stroke="rgb(192,197,193)" stroke-width="1" opacity="1" d="M 147.5 51 L 146.5 53 L 147.5 51 Z " /><path fill="rgb(192,197,193)" stroke="rgb(192,197,193)" stroke-width="1" opacity="1" d="M 44.5 53 L 35.5 63 L 44.5 53 Z " /><path fill="rgb(192,197,193)" stroke="rgb(192,197,193)" stroke-width="1" opacity="1" d="M 24.5 54 L 21.5 58 L 24.5 54 Z " /><path fill="rgb(192,197,193)" stroke="rgb(192,197,193)" stroke-width="1" opacity="1" d="M 34.5 54 L 31.5 58 L 34.5 54 Z " /><path fill="rgb(192,197,193)" stroke="rgb(192,197,193)" stroke-width="1" opacity="1" d="M 167.5 56 L 165.5 59 L 167.5 56 Z " /><path fill="rgb(192,197,193)" stroke="rgb(192,197,193)" stroke-width="1" opacity="1" d="M 89 57 L 94 59.5 L 92.5 60 L 89 59 L 89 57 Z " /><path fill="rgb(192,197,193)" stroke="rgb(192,197,193)" stroke-width="1" opacity="1" d="M 129.5 57 L 128.5 59 L 127 58.5 L 129.5 57 Z " /><path fill="rgb(192,197,193)" stroke="rgb(192,197,193)" stroke-width="1" opacity="1" d="M 21.5 59 L 30 68.5 L 24 73.5 L 29 67.5 L 21.5 59 Z " /><path fill="rgb(192,197,193)" stroke="rgb(192,197,193)" stroke-width="1" opacity="1" d="M 0.5 61 L 9.5 71 L 0.5 61 Z " /><path fill="rgb(192,197,193)" stroke="rgb(192,197,193)" stroke-width="1" opacity="1" d="M 204.5 63 L 199.5 69 L 204.5 63 Z " /><path fill="rgb(192,197,193)" stroke="rgb(192,197,193)" stroke-width="1" opacity="1" d="M 48.5 72 L 49.5 74 L 48.5 72 Z " /><path fill="rgb(192,197,193)" stroke="rgb(192,197,193)" stroke-width="1" opacity="1" d="M 146.5 74 L 147.5 76 L 146.5 74 Z " /><path fill="rgb(192,197,193)" stroke="rgb(192,197,193)" stroke-width="1" opacity="1" d="M 68.5 76 L 49.5 96 L 68.5 76 Z " /><path fill="rgb(192,197,193)" stroke="rgb(192,197,193)" stroke-width="1" opacity="1" d="M 158.5 76 L 157.5 78 L 158.5 76 Z " /><path fill="rgb(192,197,193)" stroke="rgb(192,197,193)" stroke-width="1" opacity="1" d="M 154.5 77 L 153.5 79 L 154.5 77 Z " /><path fill="rgb(192,197,193)" stroke="rgb(192,197,193)" stroke-width="1" opacity="1" d="M 93.5 81 L 92.5 83 L 93.5 81 Z " /><path fill="rgb(192,197,193)" stroke="rgb(192,197,193)" stroke-width="1" opacity="1" d="M 100.5 83 L 99.5 85 L 100.5 83 Z " /><path fill="rgb(192,197,193)" stroke="rgb(192,197,193)" stroke-width="1" opacity="1" d="M 92.5 92 L 87.5 98 L 92.5 92 Z " /><path fill="rgb(192,197,193)" stroke="rgb(192,197,193)" stroke-width="1" opacity="1" d="M 59.5 102 L 60.5 104 L 59.5 102 Z " /><path fill="rgb(192,197,194)" stroke="rgb(192,197,194)" stroke-width="1" opacity="1" d="M 0 0 L 146.5 0 L 151 2.5 L 147.5 8 Q 139.4 9.4 136 15.5 Q 135.5 23 130.5 26 L 123 30.5 Q 119.4 40.4 112.5 47 L 101.5 43 L 97.5 43 L 88.5 39 L 69 20.5 L 62.5 13 Q 55.3 12.2 51.5 8 L 46.5 9 L 39 15.5 Q 37.8 21.3 33.5 24 L 24 31.5 L 17.5 40 Q 9.6 42.1 6 48.5 L 0.5 56 L 0 0 Z " /><path fill="rgb(192,197,194)" stroke="rgb(192,197,194)" stroke-width="1" opacity="1" d="M 173.5 0 L 208.5 0 L 210 1.5 L 210 60.5 L 209 61.5 L 209 70.5 L 210 71.5 L 210 98.5 L 208.5 100 L 96.5 100 L 91 97.5 L 103 89.5 L 107 81 Q 111.2 77.6 121.5 79 L 128 80 L 127 85.5 L 132 86 L 132.5 84 L 141.5 90 L 160.5 90 L 170 84.5 L 170 81.5 L 174.5 77 L 176.5 76 Q 183 79.5 194.5 78 Q 201 76.5 204 71.5 L 206 64.5 Q 203.8 56.1 197.5 52 Q 194.6 49.4 188.5 50 L 180.5 52 L 181 50.5 Q 182.1 47.2 179.5 48 L 176.5 52 L 174.5 48 L 171 50.5 L 168.5 54 Q 165.2 55.1 166 52.5 L 167 49 Q 164.3 47.9 165 50.5 L 163 54 Q 159.2 55.5 160 52.5 L 162 49.5 L 159 49 L 158 53 L 153.5 54 L 154 52.5 Q 154.5 48.5 151.5 48 Q 146.3 46.8 145 49.5 L 143.5 53 Q 139.8 51 141.5 49 Q 138.9 49.8 140 46.5 L 141 45.5 L 142 34.5 L 143.5 33 L 151 26.5 L 155 16.5 L 157.5 14 Q 164 12.5 167 7.5 L 169 2 L 173.5 0 Z M 143 45 L 141 47 Q 140 49 143 48 Q 146 47 143 45 Z M 161 45 L 161 48 L 164 47 L 161 45 Z M 167 45 Q 166 49 169 48 Q 170 44 167 45 Z " /><path fill="rgb(192,197,194)" stroke="rgb(192,197,194)" stroke-width="1" opacity="1" d="M 157.5 11 L 156.5 13 L 157.5 11 Z " /><path fill="rgb(192,197,194)" stroke="rgb(192,197,194)" stroke-width="1" opacity="1" d="M 150.5 50 L 151 53 L 147 52.5 L 150.5 50 Z " /><path fill="rgb(192,197,194)" stroke="rgb(192,197,194)" stroke-width="1" opacity="1" d="M 173.5 52 L 172.5 54 L 173.5 52 Z " /><path fill="rgb(192,197,194)" stroke="rgb(192,197,194)" stroke-width="1" opacity="1" d="M 0 73 Q 10.3 73.9 16 80.5 L 18.5 84 L 30.5 90 L 42.5 91 L 47.5 96 L 49.5 96 L 52.5 94 L 56 96 Q 57.3 99 53.5 98 L 42.5 100 L 0 100 L 0 73 Z " /><path fill="rgb(192,198,195)" stroke="rgb(192,198,195)" stroke-width="1" opacity="1" d="M 147.5 0 Q 153.7 -0.7 155 3.5 Q 155.5 8.5 151.5 9 L 147 12.5 L 146.5 14 L 143.5 13 L 139 17.5 L 139 20.5 L 140 21.5 L 135 26.5 L 130.5 32 Q 125.8 31.3 125 34.5 Q 123.8 44.8 117.5 50 Q 114.3 52.3 107.5 51 Q 100.1 46.4 89.5 45 L 56 11.5 L 57.5 11 Q 65.4 13.1 69 19.5 L 77.5 29 L 88.5 39 L 94.5 42 L 101.5 43 L 112.5 47 L 124.5 29 L 134 22.5 Q 135 13.5 141.5 10 Q 147.4 9.4 150 5.5 L 151 2.5 Q 146.8 1.9 147.5 0 Z " /><path fill="rgb(192,198,195)" stroke="rgb(192,198,195)" stroke-width="1" opacity="1" d="M 169.5 0 L 173 0.5 L 169 2 L 168.5 4 L 167 1 L 169.5 0 Z " /><path fill="rgb(192,198,195)" stroke="rgb(192,198,195)" stroke-width="1" opacity="1" d="M 209.5 0 L 212 2.5 L 212 49.5 L 211 50.5 L 211 81.5 L 212 82.5 L 212 97.5 L 207.5 102 L 112.5 102 L 111.5 101 L 95.5 101 L 87 98.5 L 101 86.5 L 105.5 80 L 111.5 77 L 129 77 L 129 80 L 122.5 80 L 121.5 79 L 111.5 79 L 107 81 L 101.5 91 L 91 97.5 L 96.5 100 L 208.5 100 L 210 98.5 L 210 71.5 L 209 70.5 L 209 61.5 L 210 60.5 L 210 1.5 L 209.5 0 Z " /><path fill="rgb(192,198,195)" stroke="rgb(192,198,195)" stroke-width="1" opacity="1" d="M 167.5 5 L 167 6.5 L 162.5 12 L 155 16.5 Q 152.6 27.6 144.5 33 L 142 34.5 L 141 45.5 L 137.5 53 L 136 49 L 134 48.5 L 134 39.5 L 143 27 Q 145.7 28.1 145 25.5 L 161.5 8 L 167.5 5 Z M 137 45 L 135 47 Q 134 50 138 48 L 137 45 Z " /><path fill="rgb(192,198,195)" stroke="rgb(192,198,195)" stroke-width="1" opacity="1" d="M 46.5 9 L 50 9.5 L 0 58.5 Q 4.4 48.4 12.5 42 Q 19 40.5 22 35.5 L 29.5 26 L 37 20.5 Q 38.5 14 43.5 11 L 46.5 9 Z " /><path fill="rgb(192,198,195)" stroke="rgb(192,198,195)" stroke-width="1" opacity="1" d="M 45.5 31 L 50 31.5 Q 46 32.5 47 38.5 L 49 41.5 L 46 39.5 L 44 32.5 L 45.5 31 Z " /><path fill="rgb(192,198,195)" stroke="rgb(192,198,195)" stroke-width="1" opacity="1" d="M 60.5 45 Q 66.8 43.8 68 47.5 L 61.5 54 L 60.5 53 L 56 50.5 Q 55.3 46.8 57.5 46 L 60.5 45 Z " /><path fill="rgb(192,198,195)" stroke="rgb(192,198,195)" stroke-width="1" opacity="1" d="M 188.5 50 Q 199.3 50.3 203 57.5 L 204 59.5 L 195.5 52 Q 186.8 52.3 181 55.5 Q 183.8 57.3 179.5 59 L 180.5 56 L 177.5 58 L 177 54.5 L 179.5 52 L 188.5 50 Z " /><path fill="rgb(192,198,195)" stroke="rgb(192,198,195)" stroke-width="1" opacity="1" d="M 141.5 51 L 143 53.5 L 142 56 L 139 54.5 L 141.5 51 Z " /><path fill="rgb(192,198,195)" stroke="rgb(192,198,195)" stroke-width="1" opacity="1" d="M 146.5 53 Q 151.9 51.1 151 54.5 L 148.5 58 Q 143.1 59.9 144 56.5 L 146.5 53 Z " /><path fill="rgb(192,198,195)" stroke="rgb(192,198,195)" stroke-width="1" opacity="1" d="M 154.5 53 Q 157.8 51.9 157 54.5 L 154.5 58 Q 151.2 59.1 152 56.5 L 154.5 53 Z " /><path fill="rgb(192,198,195)" stroke="rgb(192,198,195)" stroke-width="1" opacity="1" d="M 173.5 53 L 174 54.5 L 171.5 58 Q 169.3 58.8 170 56.5 L 173.5 53 Z " /><path fill="rgb(192,198,195)" stroke="rgb(192,198,195)" stroke-width="1" opacity="1" d="M 159 54 Q 162.7 52.5 162 55.5 L 158.5 58 L 158 56.5 L 159 54 Z " /><path fill="rgb(192,198,195)" stroke="rgb(192,198,195)" stroke-width="1" opacity="1" d="M 165 54 L 169 54.5 Q 168.5 58.5 163.5 58 L 165 55.5 L 165 54 Z " /><path fill="rgb(192,198,195)" stroke="rgb(192,198,195)" stroke-width="1" opacity="1" d="M 204 64 Q 207.3 62.7 206 67.5 L 199.5 76 Q 193.7 79.7 182.5 78 L 176.5 76 L 170.5 81 L 171 79.5 L 170 75.5 L 176.5 72 L 186.5 76 L 194.5 76 L 201 71.5 L 204 64 Z " /><path fill="rgb(192,198,195)" stroke="rgb(192,198,195)" stroke-width="1" opacity="1" d="M 0 68 L 6.5 68 L 23.5 85 L 26.5 83 Q 29.4 87.1 37.5 86 L 42 90.5 L 37.5 91 L 27.5 89 L 16 81.5 L 12.5 77 L 0 73 L 0 68 Z " /><path fill="rgb(192,198,195)" stroke="rgb(192,198,195)" stroke-width="1" opacity="1" d="M 133.5 79 L 137 81.5 Q 136.3 85.3 138.5 86 L 143.5 87 Q 145.3 84.3 151.5 86 L 155.5 87 Q 157 83.5 158.5 86 Q 164.3 88.1 163 83.5 L 166 81.5 L 165 85.5 Q 167.3 86.8 164.5 88 L 160.5 90 L 141.5 90 L 132 83.5 L 133.5 79 Z " /><path fill="rgb(192,198,195)" stroke="rgb(192,198,195)" stroke-width="1" opacity="1" d="M 64.5 81 L 67 82.5 L 67 98 L 59.5 98 L 55.5 100 Q 49.3 98.3 47.5 101 L 0 102 L 0.5 100 L 42.5 100 L 43.5 99 Q 51.9 99.9 56 98 Q 57.1 95.3 54.5 96 L 52 93.5 L 64.5 81 Z " /><path fill="rgb(199,28,25)" stroke="rgb(199,28,25)" stroke-width="1" opacity="1" d="M 51.5 9 L 103 59.5 L 102 62.5 L 84 80.5 Q 84.5 84.5 81.5 85 L 75 84 L 74 79.5 L 76.5 76 L 80.5 75 L 92 63.5 L 94 58.5 L 79.5 46 L 58 67.5 L 55.5 73 L 51.5 74 L 48 71.5 Q 46.8 65.3 50.5 64 Q 54.9 65.5 54 62.5 L 75 40.5 L 64.5 30 L 57 37.5 L 55.5 41 L 51.5 42 L 48 39.5 Q 46.8 33.3 50.5 32 L 52.5 32 L 59 25.5 L 52.5 18 L 9 60.5 L 23.5 75 L 30 68.5 L 21 58.5 L 30 49.5 Q 29.3 44.8 32.5 44 L 35.5 43 L 40 46.5 Q 41 52 37.5 53 L 35.5 53 L 30 58.5 L 35.5 63 L 46 52.5 L 47 48 L 51.5 47 L 55 49.5 L 56 53.5 L 53.5 57 L 49.5 58 L 35 72.5 L 48.5 87 L 72 63.5 L 74.5 58 L 78.5 57 L 81 58 L 82 64.5 Q 80.7 68 76 67 L 76 68.5 L 48.5 96 L 45 93.5 L 30.5 78 L 23.5 84 L 0 60.5 L 51.5 9 Z " /><path fill="rgb(202,208,205)" stroke="rgb(202,208,205)" stroke-width="1" opacity="1" d="M 115.5 65 L 128 65.5 Q 122.3 70.8 111.5 71 L 113 68.5 L 115.5 65 Z " /><path fill="rgb(202,208,205)" stroke="rgb(202,208,205)" stroke-width="1" opacity="1" d="M 183.5 65 Q 188.5 64.5 189 68.5 L 187.5 69 L 183.5 65 Z " /><path fill="rgb(202,208,205)" stroke="rgb(202,208,205)" stroke-width="1" opacity="1" d="M 96.5 68 L 101 72.5 L 99.5 74 L 95 76 L 93 71.5 L 96.5 68 Z " /><path fill="rgb(202,208,205)" stroke="rgb(202,208,205)" stroke-width="1" opacity="1" d="M 80.5 102 L 94.5 105 L 208.5 105 L 211.5 103 L 212 109 L 0.5 109 L 0 105 L 48.5 105 L 49.5 104 L 61.5 104 L 62.5 105 L 73.5 105 L 80.5 102 Z " /><path fill="rgb(196,201,198)" stroke="rgb(196,201,198)" stroke-width="1" opacity="1" d="M 156.5 0 L 164 0.5 L 159.5 3 L 156.5 0 Z " /><path fill="rgb(196,201,198)" stroke="rgb(196,201,198)" stroke-width="1" opacity="1" d="M 32.5 42 L 31.5 44 L 32.5 42 Z " /><path fill="rgb(196,201,198)" stroke="rgb(196,201,198)" stroke-width="1" opacity="1" d="M 29.5 46 L 30 48.5 L 22 55 L 21 50.5 Q 27.1 50.1 29.5 46 Z " /><path fill="rgb(196,201,198)" stroke="rgb(196,201,198)" stroke-width="1" opacity="1" d="M 97.5 52 L 98.5 54 L 97.5 52 Z " /><path fill="rgb(196,201,198)" stroke="rgb(196,201,198)" stroke-width="1" opacity="1" d="M 126.5 52 Q 130.5 51.5 131 54.5 L 128.5 58 L 122 58 L 122 55.5 L 126.5 52 Z " /><path fill="rgb(196,201,198)" stroke="rgb(196,201,198)" stroke-width="1" opacity="1" d="M 37.5 53 L 40 54.5 L 41 56.5 L 34.5 62 L 31 58.5 L 35.5 54 L 37.5 53 Z " /><path fill="rgb(196,201,198)" stroke="rgb(196,201,198)" stroke-width="1" opacity="1" d="M 87.5 54 L 89.5 57 L 87 58.5 L 93 60.5 L 84.5 70 L 83 69.5 L 83 62.5 L 85 56.5 L 87.5 54 Z " /><path fill="rgb(196,201,198)" stroke="rgb(196,201,198)" stroke-width="1" opacity="1" d="M 106.5 54 Q 111.3 53.3 113 55.5 L 109.5 58 L 106.5 54 Z " /><path fill="rgb(196,201,198)" stroke="rgb(196,201,198)" stroke-width="1" opacity="1" d="M 132.5 56 L 134 59 L 131 58.5 L 132.5 56 Z " /><path fill="rgb(196,201,198)" stroke="rgb(196,201,198)" stroke-width="1" opacity="1" d="M 23.5 62 L 29 68.5 Q 27 73 25 69.5 Q 21.8 67.3 23.5 62 Z " /><path fill="rgb(196,201,198)" stroke="rgb(196,201,198)" stroke-width="1" opacity="1" d="M 44.5 64 Q 47.5 63.1 46 67.5 L 40.5 75 L 37.5 76 L 35 73.5 L 44.5 64 Z " /><path fill="rgb(196,201,198)" stroke="rgb(196,201,198)" stroke-width="1" opacity="1" d="M 128.5 65 L 182.5 65 L 193 72.5 Q 193.8 75.1 190.5 74 Q 181.5 72.5 176.5 67 L 172.5 67 L 166.5 70 L 162 69 L 160 78 L 158 77.5 L 159 74 Q 151.9 72.3 150 76.5 L 149.5 78 L 146.5 74 L 138 73 L 137.5 70 L 127 70 L 125.5 73 L 114.5 74 L 107.5 76 L 109 73.5 L 110.5 71 Q 122.6 71.1 128.5 65 Z " /><path fill="rgb(196,201,198)" stroke="rgb(196,201,198)" stroke-width="1" opacity="1" d="M 92.5 72 Q 94.8 71.3 94 73.5 L 95 76 L 98.5 74 L 97 76.5 L 90.5 85 L 86 81.5 L 86 78.5 L 92.5 72 Z " /><path fill="rgb(196,201,198)" stroke="rgb(196,201,198)" stroke-width="1" opacity="1" d="M 84.5 100 L 97.5 103 L 208.5 103 L 212 100.5 L 210.5 104 L 208.5 105 L 94.5 105 L 82 101.5 L 84.5 100 Z " /><path fill="rgb(196,201,198)" stroke="rgb(196,201,198)" stroke-width="1" opacity="1" d="M 55.5 101 Q 59.5 100.5 60 103.5 L 49.5 104 L 48.5 105 L 0 105 L 0.5 103 L 42.5 103 L 43.5 102 L 54.5 102 L 55.5 101 Z " /><path fill="rgb(194,199,196)" stroke="rgb(194,199,196)" stroke-width="1" opacity="1" d="M 151.5 0 Q 156.3 0.3 158 3.5 L 155 5.5 Q 155.5 1.5 152.5 1 L 151.5 0 Z " /><path fill="rgb(194,199,196)" stroke="rgb(194,199,196)" stroke-width="1" opacity="1" d="M 167.5 0 L 169 0.5 L 164.5 2 L 164.5 1 L 167.5 0 Z " /><path fill="rgb(194,199,196)" stroke="rgb(194,199,196)" stroke-width="1" opacity="1" d="M 210.5 0 L 211.5 2 L 210.5 0 Z " /><path fill="rgb(194,199,196)" stroke="rgb(194,199,196)" stroke-width="1" opacity="1" d="M 143.5 13 Q 147.3 12 146 15 L 141 18.5 L 139.5 21 L 139 17.5 L 143.5 13 Z " /><path fill="rgb(194,199,196)" stroke="rgb(194,199,196)" stroke-width="1" opacity="1" d="M 53.5 20 L 59 25.5 L 53.5 31 L 50.5 32 L 45.5 31 Q 43.3 31.8 44 35.5 L 48.5 42 Q 55.3 43.7 57 40.5 Q 57.3 35.8 60.5 34 L 64.5 37 L 67.5 34 L 74 40.5 L 68.5 47 Q 66.5 44 60.5 45 L 56 47.5 L 55.5 49 Q 54.2 45.8 48.5 47 L 44 50.5 L 36 34.5 L 46.5 24 Q 51.6 24.6 53 21.5 L 53.5 20 Z " /><path fill="rgb(194,199,196)" stroke="rgb(194,199,196)" stroke-width="1" opacity="1" d="M 127.5 32 L 131 32.5 L 123.5 42 L 123 40.5 Q 125.6 39.1 125 34.5 L 127.5 32 Z " /><path fill="rgb(194,199,196)" stroke="rgb(194,199,196)" stroke-width="1" opacity="1" d="M 133.5 40 L 134 49.5 L 131.5 51 Q 128.8 49.8 130 44.5 L 133.5 40 Z " /><path fill="rgb(194,199,196)" stroke="rgb(194,199,196)" stroke-width="1" opacity="1" d="M 90.5 45 L 107.5 51 L 115.5 51 L 117 50.5 L 116 53 L 107.5 53 L 93.5 49 L 90.5 45 Z " /><path fill="rgb(194,199,196)" stroke="rgb(194,199,196)" stroke-width="1" opacity="1" d="M 79.5 47 L 81 47.5 L 78 49.5 L 77 57 Q 73.2 56.3 72 59.5 L 72 62 L 65.5 62 L 79.5 47 Z " /><path fill="rgb(194,199,196)" stroke="rgb(194,199,196)" stroke-width="1" opacity="1" d="M 211.5 50 L 212 63.5 L 211 63.5 L 211.5 50 Z " /><path fill="rgb(194,199,196)" stroke="rgb(194,199,196)" stroke-width="1" opacity="1" d="M 56.5 51 L 61 53 L 55.5 60 L 52 58.5 L 55 57 L 56.5 51 Z " /><path fill="rgb(194,199,196)" stroke="rgb(194,199,196)" stroke-width="1" opacity="1" d="M 135.5 51 L 137 55 L 133 54.5 L 135.5 51 Z " /><path fill="rgb(194,199,196)" stroke="rgb(194,199,196)" stroke-width="1" opacity="1" d="M 187.5 53 L 191 53.5 Q 188.3 56.8 182.5 57 L 181.5 56 L 178.5 59 L 177 58.5 L 179.5 56 L 187.5 53 Z " /><path fill="rgb(194,199,196)" stroke="rgb(194,199,196)" stroke-width="1" opacity="1" d="M 139.5 55 L 141 57.5 Q 139.5 60.5 138 57.5 L 139.5 55 Z " /><path fill="rgb(194,199,196)" stroke="rgb(194,199,196)" stroke-width="1" opacity="1" d="M 14.5 56 Q 16.8 55.3 16 57.5 L 24 73.5 L 10 60.5 L 14.5 56 Z " /><path fill="rgb(194,199,196)" stroke="rgb(194,199,196)" stroke-width="1" opacity="1" d="M 159.5 57 L 161 57.5 L 157.5 59 L 157.5 58 L 159.5 57 Z " /><path fill="rgb(194,199,196)" stroke="rgb(194,199,196)" stroke-width="1" opacity="1" d="M 143.5 58 L 149 58.5 L 143.5 59 L 143.5 58 Z " /><path fill="rgb(194,199,196)" stroke="rgb(194,199,196)" stroke-width="1" opacity="1" d="M 151.5 58 L 154 58.5 L 151.5 59 L 151.5 58 Z " /><path fill="rgb(194,199,196)" stroke="rgb(194,199,196)" stroke-width="1" opacity="1" d="M 0 63 L 6 67.5 L 0 68 L 0 63 Z " /><path fill="rgb(194,199,196)" stroke="rgb(194,199,196)" stroke-width="1" opacity="1" d="M 203.5 65 L 204 66.5 L 199.5 73 Q 196 77.5 186.5 76 L 175.5 72 L 170.5 75 L 167 73.5 L 176.5 69 Q 181.9 74.6 192.5 75 L 202 67.5 L 203.5 65 Z " /><path fill="rgb(194,199,196)" stroke="rgb(194,199,196)" stroke-width="1" opacity="1" d="M 79.5 67 Q 81.8 68.8 81 73.5 L 74 77.5 Q 73.4 82.9 75 85 L 80 86.5 Q 75 90.8 74 98 L 64.5 99 L 64.5 98 L 67 97.5 L 67 82.5 L 65 80.5 L 69 76.5 L 76.5 68 L 79.5 67 Z " /><path fill="rgb(194,199,196)" stroke="rgb(194,199,196)" stroke-width="1" opacity="1" d="M 211.5 68 L 212 81.5 L 211 81.5 L 211.5 68 Z " /><path fill="rgb(194,199,196)" stroke="rgb(194,199,196)" stroke-width="1" opacity="1" d="M 61.5 72 L 48.5 86 L 44 82.5 Q 48.7 82.7 50 79.5 L 51.5 77 L 61.5 72 Z " /><path fill="rgb(194,199,196)" stroke="rgb(194,199,196)" stroke-width="1" opacity="1" d="M 127.5 74 Q 130.5 73.2 129 77 L 111.5 77 L 103 82.5 L 98.5 89 L 94.5 91 L 101 83.5 L 105.5 78 L 110.5 76 L 126.5 75 L 127.5 74 Z " /><path fill="rgb(194,199,196)" stroke="rgb(194,199,196)" stroke-width="1" opacity="1" d="M 134.5 76 L 138 77.5 L 136.5 81 L 133 78.5 L 134.5 76 Z " /><path fill="rgb(194,199,196)" stroke="rgb(194,199,196)" stroke-width="1" opacity="1" d="M 165.5 77 Q 168.3 78.3 166 79.5 L 163.5 83 L 164 81.5 L 165.5 77 Z " /><path fill="rgb(194,199,196)" stroke="rgb(194,199,196)" stroke-width="1" opacity="1" d="M 28.5 80 L 37 85.5 L 31.5 86 L 26 82.5 L 28.5 80 Z " /><path fill="rgb(194,199,196)" stroke="rgb(194,199,196)" stroke-width="1" opacity="1" d="M 146 84 L 150 85.5 L 146 86 L 146 84 Z " /><path fill="rgb(194,199,196)" stroke="rgb(194,199,196)" stroke-width="1" opacity="1" d="M 84 89 L 86 89.5 L 83 91.5 L 84 89 Z " /><path fill="rgb(194,199,196)" stroke="rgb(194,199,196)" stroke-width="1" opacity="1" d="M 86.5 98 L 95.5 101 L 112 101.5 L 95.5 102 L 87.5 100 L 86.5 98 Z " /><path fill="rgb(194,199,196)" stroke="rgb(194,199,196)" stroke-width="1" opacity="1" d="M 211.5 98 L 208.5 102 L 211.5 98 Z " /><path fill="rgb(194,199,196)" stroke="rgb(194,199,196)" stroke-width="1" opacity="1" d="M 56.5 99 L 58 99.5 Q 55.3 102.3 48.5 101 L 48.5 100 Q 54.8 101.7 56.5 99 Z " /><path fill="rgb(194,199,196)" stroke="rgb(194,199,196)" stroke-width="1" opacity="1" d="M 32.5 101 L 46 101.5 L 32.5 102 L 32.5 101 Z " /><path fill="rgb(195,200,196)" stroke="rgb(195,200,196)" stroke-width="1" opacity="1" d="M 153.5 0 L 159 2.5 L 158.5 4 Q 158 0.5 153.5 1 L 153.5 0 Z " /><path fill="rgb(195,200,196)" stroke="rgb(195,200,196)" stroke-width="1" opacity="1" d="M 164.5 0 L 167 0.5 L 161.5 3 L 162.5 1 L 164.5 0 Z " /><path fill="rgb(195,200,196)" stroke="rgb(195,200,196)" stroke-width="1" opacity="1" d="M 144.5 15 L 141.5 19 L 144.5 15 Z " /><path fill="rgb(195,200,196)" stroke="rgb(195,200,196)" stroke-width="1" opacity="1" d="M 51.5 19 Q 54.1 18.2 53 21.5 L 47.5 24 L 51.5 19 Z " /><path fill="rgb(195,200,196)" stroke="rgb(195,200,196)" stroke-width="1" opacity="1" d="M 63.5 31 L 67 33.5 L 64.5 37 L 61 34.5 L 63.5 31 Z " /><path fill="rgb(195,200,196)" stroke="rgb(195,200,196)" stroke-width="1" opacity="1" d="M 35.5 35 Q 38.1 34.2 37 37.5 L 45 52.5 L 40 56 L 39 52.5 L 41 48.5 L 37.5 43 L 32.5 42 L 26.5 49 L 21 50.5 L 23 55.5 L 21 59.5 L 23 61.5 L 23 66.5 L 26 71.5 L 23 73 L 15 55.5 L 35.5 35 Z " /><path fill="rgb(195,200,196)" stroke="rgb(195,200,196)" stroke-width="1" opacity="1" d="M 129.5 46 L 132 52.5 Q 130.3 55.8 128.5 52 L 125.5 53 L 125 51.5 L 129.5 46 Z " /><path fill="rgb(195,200,196)" stroke="rgb(195,200,196)" stroke-width="1" opacity="1" d="M 79.5 48 L 81.5 48 L 87 53.5 L 83.5 62 L 79.5 57 L 77 57 L 77 51.5 L 79.5 48 Z " /><path fill="rgb(195,200,196)" stroke="rgb(195,200,196)" stroke-width="1" opacity="1" d="M 94.5 49 L 102 51.5 L 98.5 53 L 94.5 49 Z " /><path fill="rgb(195,200,196)" stroke="rgb(195,200,196)" stroke-width="1" opacity="1" d="M 104.5 52 L 115 53.5 L 111.5 55 Q 110.3 52.8 105.5 54 L 104.5 52 Z " /><path fill="rgb(195,200,196)" stroke="rgb(195,200,196)" stroke-width="1" opacity="1" d="M 133 55 Q 136.7 53.5 136 56.5 Q 134.5 59.5 133 56.5 L 133 55 Z " /><path fill="rgb(195,200,196)" stroke="rgb(195,200,196)" stroke-width="1" opacity="1" d="M 188.5 55 L 186.5 58 L 183 59 Q 181.9 56.3 184.5 57 L 188.5 55 Z " /><path fill="rgb(195,200,196)" stroke="rgb(195,200,196)" stroke-width="1" opacity="1" d="M 50.5 58 L 56 60.5 L 47 66.5 Q 46.2 72.3 49.5 74 Q 55.5 75.5 57 72.5 Q 58 64.6 64.5 62 L 72 62.5 L 62.5 72 Q 54.7 73.7 50 78.5 L 47.5 82 L 43.5 82 L 38 76.5 L 44 71.5 L 46 64.5 L 45 63.5 L 50.5 58 Z " /><path fill="rgb(195,200,196)" stroke="rgb(195,200,196)" stroke-width="1" opacity="1" d="M 87.5 58 L 91 59.5 L 89.5 60 L 87.5 58 Z " /><path fill="rgb(195,200,196)" stroke="rgb(195,200,196)" stroke-width="1" opacity="1" d="M 82.5 64 L 84 70.5 L 81 72.5 L 80 67.5 L 82.5 64 Z " /><path fill="rgb(195,200,196)" stroke="rgb(195,200,196)" stroke-width="1" opacity="1" d="M 211.5 64 L 212 67.5 L 211 67.5 L 211.5 64 Z " /><path fill="rgb(195,200,196)" stroke="rgb(195,200,196)" stroke-width="1" opacity="1" d="M 172.5 67 L 176.5 67 Q 181.9 73.1 192.5 74 L 201.5 67 L 196.5 73 L 189.5 75 L 175.5 69 L 165 74 L 166 70 L 172.5 67 Z " /><path fill="rgb(195,200,196)" stroke="rgb(195,200,196)" stroke-width="1" opacity="1" d="M 122.5 73 Q 126.3 72.3 127 74.5 L 110.5 76 L 106.5 78 L 106 76 L 122.5 73 Z " /><path fill="rgb(195,200,196)" stroke="rgb(195,200,196)" stroke-width="1" opacity="1" d="M 138.5 73 L 141 73.5 L 136.5 77 L 134 76 Q 132.7 72.7 137.5 74 L 138.5 73 Z " /><path fill="rgb(195,200,196)" stroke="rgb(195,200,196)" stroke-width="1" opacity="1" d="M 142 77 L 144 77.5 L 142 78.5 L 142 77 Z " /><path fill="rgb(195,200,196)" stroke="rgb(195,200,196)" stroke-width="1" opacity="1" d="M 148.5 77 L 149 84 L 142 82.5 L 148 79.5 L 148.5 77 Z " /><path fill="rgb(195,200,196)" stroke="rgb(195,200,196)" stroke-width="1" opacity="1" d="M 154.5 78 Q 160.6 76.8 160 79.5 L 159 83 L 156.5 82 L 153 83 Q 152 79.2 154.5 78 Z " /><path fill="rgb(195,200,196)" stroke="rgb(195,200,196)" stroke-width="1" opacity="1" d="M 29 79 L 34 82.5 L 31.5 83 L 29 79 Z " /><path fill="rgb(195,200,196)" stroke="rgb(195,200,196)" stroke-width="1" opacity="1" d="M 85.5 79 L 88.5 84 Q 90.8 83.3 90 85.5 Q 88.7 89.8 84 89 Q 83.4 94.4 78.5 97 L 75.5 99 L 66.5 100 L 66.5 99 L 74 98 Q 75.1 90.4 80.5 86 L 84 83.5 L 85.5 79 Z " /><path fill="rgb(195,200,196)" stroke="rgb(195,200,196)" stroke-width="1" opacity="1" d="M 211.5 99 L 208.5 103 L 97 102.5 L 208.5 102 L 211.5 99 Z " /><path fill="rgb(195,200,196)" stroke="rgb(195,200,196)" stroke-width="1" opacity="1" d="M 88.5 100 L 91 100.5 L 88.5 101 L 88.5 100 Z " /><path fill="rgb(195,200,196)" stroke="rgb(195,200,196)" stroke-width="1" opacity="1" d="M 46.5 101 L 55 101.5 L 46.5 102 L 46.5 101 Z " /><path fill="rgb(195,200,196)" stroke="rgb(195,200,196)" stroke-width="1" opacity="1" d="M 92.5 101 L 95 101.5 L 92.5 102 L 92.5 101 Z " /><path fill="rgb(195,200,196)" stroke="rgb(195,200,196)" stroke-width="1" opacity="1" d="M 0.5 102 L 43 102.5 L 0.5 103 L 0.5 102 Z " /></svg>